<svg version="1" xmlns="http://www.w3.org/2000/svg" width="256" height="256" viewBox="0 0 192.000000 192.000000"><path d="M14.9 62.9c-2.2 1.8-2.4 2.7-3.1 20.2-1.6 38.1-1.5 46.3.4 46.7 3.2.6 5-4.3 6.9-19.1C21.7 90.8 23.1 83 24 83c1.7 0 2.2.9 13.4 28.2 3.6 8.7 4.7 10 8.1 10 3.7 0 4.4-1 12.7-19.1 8.4-18.3 9.8-20.8 10.8-19 .4.8 1.3 9.5 2 19.4.6 9.9 1.5 19.6 2.1 21.6 1.2 4.7 4.4 7.7 6.7 6.3 1.5-1 1.6-4.1 1.5-31-.1-33.2-.6-36.5-5.8-37.8-5.5-1.4-8.9 2.6-20 23.4-4.3 8-8.2 15.1-8.8 15.8-1.3 1.6-1.6 1.1-10.8-16.7C28.6 69.9 22 61 18.8 61c-.9 0-2.6.9-3.9 1.9zM176.7 63.9c-1.6 2-3.8 7.9-6.6 18.3-7.8 28.2-9.5 32.8-11.2 31.1-1.1-1.1-4.8-13.5-9.4-31.3-3.6-13.8-5.4-17-9.6-17-3.7 0-5.6 3.6-8.3 15.1-3.3 14-7.3 27.4-9.3 31.3-1.4 2.6-1.6 2.7-2.5 1.2-.5-1-3.4-9.9-6.3-19.9-3-10-5.8-19.5-6.5-21.1-1.9-5.1-5-8.6-7.6-8.6-2.1 0-2.4.5-2.4 3.4 0 6.3 11 50.5 14.1 56.7 1.2 2.4 2.9 4.1 4.9 4.8 2.8.9 3.4.8 5.5-1.3 2.9-2.9 6.9-10.8 12.5-24.9 2.3-5.9 4.6-10.9 5-11.2.4-.3 1.8 2.3 3 5.8 8.4 23.2 14.3 33.7 19.2 33.7 3.8 0 7.3-5.3 10.3-15.7 5.3-18.6 10.5-43.4 10.5-49.9 0-4.3-1.9-4.5-5.3-.5z"/></svg>